<svg xmlns="http://www.w3.org/2000/svg" xmlns:xlink="http://www.w3.org/1999/xlink" version="1.1" id="Layer_1" x="0px" y="0px" viewBox="0 0 160 20" style="enable-background:new 0 0 160 20;" xml:space="preserve">
<style type="text/css">
	.st0
    {
        fill:#00AEEF;
        transform:translateX(-1000px);
        animation:Enter-from-left 1s linear both;
    }
    #maskRect{
        opacity:0;
        animation:maskShow 1s 2.9s linear both;
    }
    #first-7{animation-delay:0.2s;}
    #first-6{animation-delay:0.5s;}
    #first-5{animation-delay:0.8s;}
    #first-4{animation-delay:1.1s;}
    #first-3{animation-delay:1.4s;}
    #first-2{animation-delay:1.7s;}
    #first-1{animation-delay:2s;}
	.st1{opacity:0.73;}
	.st2{clip-path:url(#XMLID_25_);fill:url(#XMLID_26_);}
	.st3{clip-path:url(#XMLID_26_);fill:url(#XMLID_70_);}
    @keyframes Enter-from-left{0%{transform:translateX(-1000px)}100%{transform:translateX(0px)}}
    @keyframes maskShow{0%{opacity:0}100%{opacity:1}}
</style>
<g>
	<polygon id="first-1" class="st0" points="125,10 118,10 120,14 122.5,14 123.5,16 116,16 116,4 117.5,4 118.5,6 123,6 120,0    112,0 112,20 130,20  "/>
	<polygon id="first-2" class="st0" points="110,0 106,0 106,10 102,0 98,0 98,20 102,20 102,10 106,20 110,20  "/>
	<polygon id="first-3" class="st0" points="96,8 90,0 84,8 84,20 88,20 88,9.3 90,6.7 92,9.3 92,20 96,20  "/>
	<path id="first-4" class="st0" d="M82,20H70V0h12v8l-2,2l2,2V20z M78,13.7L74.3,10L78,6.3V4h-4v12h4V13.7z"/>
	<polygon id="first-5" class="st0" points="68,10 64,10 62,10 62,14 64,14 64,16 60,16 60,4 64,4 64,6 68,6 68,0 56,0 56,20 68,20     "/>
	<rect id="first-6" x="50" class="st0" width="4" height="20"/>
	<path id="first-7" class="st0" d="M48,20H30L40,0h8v8l-2,2l2,2V20z M40.3,10L44,6.3V4h-1.5l-6,12H44v-2.3L40.3,10z"/>
</g>
<g id="XMLID_23_" class="st1">
	<defs>
		<path id="XMLID_12_" class="st1" d="M130,20h-18V0h8l3,6h-4.5l-1-2H116v12h7.5l-1-2H120l-2-4h7L130,20z M110,0h-4v10l-4-10h-4v20    h4V10l4,10h4V0z M96,8l-6-8l-6,8v12h4V9.3l2-2.7l2,2.7V20h4V8z M82,12l-2-2l2-2V0H70v20h12V12z M78,16h-4V4h4v2.3L74.3,10l3.7,3.7    V16z M68,10h-4h-2v4h2v2h-4V4h4v2h4V0H56v20h12V10z M54,0h-4v20h4V0z M48,12l-2-2l2-2V0h-8L30,20h18V12z M44,13.7V16h-7.5l6-12H44    v2.3L40.3,10L44,13.7z"/>
	</defs>
	<clipPath id="XMLID_25_">
		<use xlink:href="#XMLID_12_" style="overflow:visible;"/>
	</clipPath>
	<linearGradient id="XMLID_26_" gradientUnits="userSpaceOnUse" x1="20.0572" y1="10" x2="139.9428" y2="10">
		<stop offset="0" style="stop-color:#00AEEF"/>
		<stop offset="0.1935" style="stop-color:#FFFFFF"/>
		<stop offset="1" style="stop-color:#00AEEF"/>
        <animate attributeName="x1" dur="3s" values="0; 140;0" repeatCount="indefinite"/>
	</linearGradient>
	<rect id="maskRect" x="20.1" y="0" class="st2" width="119.9" height="20"/>
</g>
</svg>