<!-- Generator: Adobe Illustrator 24.0.0, SVG Export Plug-In  -->
<svg version="1.1" xmlns="http://www.w3.org/2000/svg" xmlns:xlink="http://www.w3.org/1999/xlink" x="0px" y="0px" width="202.4px"
	 height="61px" viewBox="0 0 202.4 61" style="enable-background:new 0 0 202.4 61;" xml:space="preserve">
<style type="text/css">
	.st0{fill:#00ADEE;}
	.st1{fill:url(#SVGID_1_);}
	.st2{fill:url(#SVGID_2_);}
</style>
<defs>
</defs>
<g>
	<g>
		<polygon class="st0" points="192.3,40.6 178,40.6 182.2,48.6 187.2,48.6 189.3,52.8 174,52.8 174,28.4 177.1,28.4 179.1,32.4 
			188.1,32.4 182.2,20.6 166,20.6 166,60.8 202.4,60.8 		"/>
		<polygon class="st0" points="161.8,20.6 153.8,20.6 153.8,40.6 145.6,20.6 137.6,20.6 137.6,60.8 145.6,60.8 145.6,40.6 
			153.8,60.8 161.8,60.8 		"/>
		<polygon class="st0" points="133.6,36.6 121.4,20.6 109.4,36.6 109.4,60.8 117.4,60.8 117.4,39.2 121.4,33.8 125.4,39.2 
			125.4,60.8 133.6,60.8 		"/>
		<path class="st0" d="M105.2,60.8H81V20.6h24.2v16.2l-4,4l4,4V60.8L105.2,60.8z M97.2,47.9l-7.5-7.3l7.5-7.5v-4.7H89v24.4h8.2V47.9
			z"/>
		<polygon class="st0" points="77,40.6 68.8,40.6 64.8,40.6 64.8,48.6 68.8,48.6 68.8,52.8 60.8,52.8 60.8,28.4 68.8,28.4 
			68.8,32.4 77,32.4 77,20.6 52.6,20.6 52.6,60.8 77,60.8 		"/>
		<rect x="40.6" y="20.6" class="st0" width="8.2" height="40.4"/>
		<path class="st0" d="M36.4,60.8H0l20.2-40.4h16.2v16.2l-4,4l4,4V60.8L36.4,60.8z M20.9,40.6l7.3-7.5v-4.7h-3.1L12.9,52.6H28v-4.7
			L20.9,40.6z"/>
		<path class="st0" d="M185.7,17.9v-4.2h1.9c0.3,0,0.7,0,0.9,0.2c0.2,0,0.3,0.2,0.5,0.3c0.2,0.2,0.2,0.3,0.2,0.7
			c0,0.3-0.2,0.5-0.3,0.7c-0.2,0.2-0.5,0.3-0.9,0.3c0.2,0,0.2,0.2,0.3,0.2c0.2,0.2,0.3,0.3,0.5,0.5l0.7,1.2h-0.7l-0.5-0.9
			c-0.2-0.3-0.3-0.5-0.3-0.5s-0.2-0.2-0.3-0.3c-0.2-0.2-0.2,0-0.2-0.2c0,0-0.2,0-0.3,0h-0.7v1.9H185.7z M186.2,15.3h1.2
			c0.2,0,0.5,0,0.5,0s0.2-0.2,0.3-0.3c0.2-0.2,0.2-0.2,0.2-0.3c0-0.2,0-0.3-0.2-0.5c-0.2-0.2-0.3-0.2-0.7-0.2h-1.4V15.3L186.2,15.3z
			"/>
		<path class="st0" d="M187.2,19.7c-2.1,0-3.8-1.7-3.8-3.8s1.7-3.8,3.8-3.8s3.8,1.7,3.8,3.8S189.3,19.7,187.2,19.7 M187.2,12.7
			c-1.7,0-3.3,1.4-3.3,3.3c0,1.7,1.4,3.3,3.3,3.3c1.9,0,3.3-1.4,3.3-3.3C190.4,14.1,189,12.7,187.2,12.7"/>
		<g>
			<path class="st0" d="M5.7,6.3H4v4H2.8V0.9h3.1c2.3,0,3.3,1.2,3.3,2.8C9.1,4.9,8,6.3,5.7,6.3z M5.7,5.2c1.4,0,2.1-0.7,2.1-1.7
				c0-1-0.5-1.7-2.1-1.7H4v3.5H5.7z"/>
			<path class="st0" d="M13.8,10.3c-2.1,0-3.7-1.6-3.7-3.8s1.7-3.8,3.8-3.8s3.8,1.6,3.8,3.8C17.6,8.9,15.9,10.3,13.8,10.3z
				 M13.8,9.2c1.2,0,2.6-0.9,2.6-2.8s-1.2-2.8-2.4-2.8c-1.4,0-2.4,0.9-2.4,2.8C11.3,8.4,12.4,9.2,13.8,9.2z"/>
			<path class="st0" d="M18.3,2.8h1.2l1.7,6.3l1.9-6.3h1.2l1.7,6.3l1.7-6.3h1.2l-2.3,7.5h-1.2l-1.7-5.9l-1.7,5.9h-1.2L18.3,2.8z"/>
			<path class="st0" d="M33.4,10.3c-2.1,0-3.7-1.6-3.7-3.8s1.6-3.8,3.7-3.8s3.5,1.6,3.5,3.5c0,0.3,0,0.5,0,0.7H31
				c0.2,1.6,1.2,2.3,2.4,2.3c1,0,1.7-0.5,2.1-1.4h1.4C36.4,9.2,35.4,10.3,33.4,10.3z M31,5.9h4.7c0-1.4-1-2.3-2.3-2.3
				C32.2,3.7,31.2,4.5,31,5.9z"/>
			<path class="st0" d="M39.9,10.1h-1.2V2.6h1.2V4c0.3-0.9,1.2-1.4,2.4-1.4v1.2H42c-1.2,0-2.1,0.5-2.1,2.3
				C39.9,6.1,39.9,10.1,39.9,10.1z"/>
			<path class="st0" d="M46.9,10.3c-2.1,0-3.7-1.6-3.7-3.8s1.6-3.8,3.7-3.8s3.5,1.6,3.5,3.5c0,0.3,0,0.5,0,0.7h-5.9
				c0.2,1.6,1.2,2.3,2.4,2.3c1,0,1.7-0.5,2.1-1.4h1.4C49.8,9.2,48.8,10.3,46.9,10.3z M44.4,5.9h4.7c0-1.4-1-2.3-2.3-2.3
				C45.6,3.7,44.6,4.5,44.4,5.9z"/>
			<path class="st0" d="M55,2.6c1.2,0,2.3,0.5,2.8,1.4V0H59v10.1h-1.2V8.7c-0.5,0.9-1.4,1.6-2.8,1.6c-1.9,0-3.5-1.6-3.5-3.8
				S53.1,2.6,55,2.6z M55.4,3.7c-1.4,0-2.4,1-2.4,2.8s1.2,2.8,2.4,2.8s2.4-1,2.4-2.8S56.6,3.7,55.4,3.7z"/>
			<path class="st0" d="M68.3,10.1h-3.5V0.7h3.3c1.9,0,3,1,3,2.4c0,1.2-0.7,1.9-1.6,2.3c1,0.2,1.9,1.2,1.9,2.3
				C71.4,9.2,70.2,10.1,68.3,10.1z M68.1,1.7H66v3.1h2.1c1.2,0,1.7-0.5,1.7-1.6C69.8,2.3,69.3,1.7,68.1,1.7z M68.1,5.7H66v3.5h2.3
				c1.2,0,1.9-0.7,1.9-1.6S69.3,5.7,68.1,5.7z"/>
			<path class="st0" d="M78.2,2.8h1.2l-4.5,11h-1.2l1.4-3.5l-3-7.3h1.4l2.3,6.1L78.2,2.8z"/>
		</g>
		<path class="st0" d="M185.7,17.9v-4.2h1.9c0.3,0,0.7,0,0.9,0.2c0.2,0,0.3,0.2,0.5,0.3c0.2,0.2,0.2,0.3,0.2,0.7
			c0,0.3-0.2,0.5-0.3,0.7c-0.2,0.2-0.5,0.3-0.9,0.3c0.2,0,0.2,0.2,0.3,0.2c0.2,0.2,0.3,0.3,0.5,0.5l0.7,1.2h-0.7l-0.5-0.9
			c-0.2-0.3-0.3-0.5-0.3-0.5s-0.2-0.2-0.3-0.3c-0.2-0.2-0.2,0-0.2-0.2c0,0-0.2,0-0.3,0h-0.7v1.9H185.7z M186.2,15.3h1.2
			c0.2,0,0.5,0,0.5,0s0.2-0.2,0.3-0.3c0.2-0.2,0.2-0.2,0.2-0.3c0-0.2,0-0.3-0.2-0.5c-0.2-0.2-0.3-0.2-0.7-0.2h-1.4V15.3L186.2,15.3z
			"/>
		<path class="st0" d="M187.2,19.7c-2.1,0-3.8-1.7-3.8-3.8s1.7-3.8,3.8-3.8s3.8,1.7,3.8,3.8S189.3,19.7,187.2,19.7 M187.2,12.7
			c-1.7,0-3.3,1.4-3.3,3.3c0,1.7,1.4,3.3,3.3,3.3c1.9,0,3.3-1.4,3.3-3.3C190.4,14.1,189,12.7,187.2,12.7"/>
		<path class="st0" d="M187.2,19.7c-2.1,0-3.8-1.7-3.8-3.8s1.7-3.8,3.8-3.8s3.8,1.7,3.8,3.8S189.3,19.7,187.2,19.7 M187.2,12.7
			c-1.7,0-3.3,1.4-3.3,3.3c0,1.7,1.4,3.3,3.3,3.3c1.9,0,3.3-1.4,3.3-3.3C190.4,14.1,189,12.7,187.2,12.7"/>
	</g>
	
		<linearGradient id="SVGID_1_" gradientUnits="userSpaceOnUse" x1="0" y1="30.3717" x2="202.4" y2="30.3717" gradientTransform="matrix(1 0 0 -1 0 60.8536)">
		<stop  offset="0" style="stop-color:#FFFFFF;stop-opacity:0"/>
		<stop  offset="0.4355" style="stop-color:#FFFFFF;stop-opacity:0.3"/>
		<stop  offset="0.5049" style="stop-color:#FFFFFF;stop-opacity:0.5"/>
		<stop  offset="0.573" style="stop-color:#FFFFFF;stop-opacity:0.3"/>
		<stop  offset="1" style="stop-color:#FFFFFF;stop-opacity:0"/>
        <animate attributeName="x1" dur="3s" values="-200; 202.4;-200"  repeatCount="indefinite" />
	</linearGradient>
	<path class="st1" d="M185.7,17.9v-4.2h1.9c0.3,0,0.7,0,0.9,0.2c0.2,0,0.3,0.2,0.5,0.3c0.2,0.2,0.2,0.3,0.2,0.7
		c0,0.3-0.2,0.5-0.3,0.7c-0.2,0.2-0.5,0.3-0.9,0.3c0.2,0,0.2,0.2,0.3,0.2c0.2,0.2,0.3,0.3,0.5,0.5l0.7,1.2h-0.7l-0.5-0.9
		c-0.2-0.3-0.3-0.5-0.3-0.5s-0.2-0.2-0.3-0.3c-0.2-0.2-0.2,0-0.2-0.2c0,0-0.2,0-0.3,0h-0.7v1.9H185.7z M186.2,15.3h1.2
		c0.2,0,0.5,0,0.5,0s0.2-0.2,0.3-0.3c0.2-0.2,0.2-0.2,0.2-0.3c0-0.2,0-0.3-0.2-0.5c-0.2-0.2-0.3-0.2-0.7-0.2h-1.4V15.3L186.2,15.3z
		 M187.2,19.7c-2.1,0-3.8-1.7-3.8-3.8s1.7-3.8,3.8-3.8s3.8,1.7,3.8,3.8S189.3,19.7,187.2,19.7 M187.2,12.7c-1.7,0-3.3,1.4-3.3,3.3
		c0,1.7,1.4,3.3,3.3,3.3c1.9,0,3.3-1.4,3.3-3.3C190.4,14.1,189,12.7,187.2,12.7 M192.3,40.6H178l4.2,8h5.1l2.1,4.2H174V28.4h3.1
		l1.9,4h9.1l-5.9-12H166v40.4h36.4L192.3,40.6z M161.8,20.6h-8v20.2l-8.2-20.2h-8V61h8V40.6l8.2,20.2h8V20.6z M133.6,36.6
		l-12.2-16.2l-12,16.2v24.2h8V39.2l4-5.4l4,5.4v21.6h8.2V36.6z M105.2,60.8H81V20.6h24.2v16.2l-4,4l4,4V60.8L105.2,60.8z M97.2,47.9
		l-7.5-7.3l7.5-7.5v-4.7H89v24.4h8.2V47.9z M77,40.6h-8.2h-4v8h4v4.2h-8V28.4h8v4H77v-12H52.6v40.4H77V40.6z M40.6,20.6h8.2V61h-8.2
		V20.6z M36.4,60.8H0l20.2-40.4h16.2v16.2l-4,4l4,4V60.8L36.4,60.8z M20.9,40.6l7.3-7.5v-4.7h-3.1L12.9,52.6H28v-4.7L20.9,40.6z
		 M5.7,6.3H4v4H2.8V0.9h3.1c2.3,0,3.3,1.2,3.3,2.8C9.1,4.9,8,6.3,5.7,6.3z M5.7,5.2c1.4,0,2.1-0.7,2.1-1.7c0-1-0.5-1.7-2.1-1.7H4
		v3.5H5.7z M13.8,10.3c-2.1,0-3.7-1.6-3.7-3.8s1.7-3.8,3.8-3.8s3.8,1.6,3.8,3.8C17.6,8.9,15.9,10.3,13.8,10.3z M13.8,9.2
		c1.2,0,2.6-0.9,2.6-2.8s-1.2-2.8-2.4-2.8c-1.4,0-2.4,0.9-2.4,2.8C11.3,8.4,12.4,9.2,13.8,9.2z M18.3,2.8h1.2l1.7,6.3l1.9-6.3h1.2
		l1.7,6.3l1.7-6.3h1.2l-2.3,7.5h-1.2l-1.7-5.9l-1.7,5.9h-1.2L18.3,2.8z M33.4,10.3c-2.1,0-3.7-1.6-3.7-3.8s1.6-3.8,3.7-3.8
		s3.5,1.6,3.5,3.5c0,0.3,0,0.5,0,0.7H31c0.2,1.6,1.2,2.3,2.4,2.3c1,0,1.7-0.5,2.1-1.4h1.4C36.4,9.2,35.4,10.3,33.4,10.3z M31,5.9
		h4.7c0-1.4-1-2.3-2.3-2.3C32.2,3.7,31.2,4.5,31,5.9z M39.9,10.1h-1.2V2.6h1.2V4c0.3-0.9,1.2-1.4,2.4-1.4v1.2H42
		c-1.2,0-2.1,0.5-2.1,2.3C39.9,6.1,39.9,10.1,39.9,10.1z M46.9,10.3c-2.1,0-3.7-1.6-3.7-3.8s1.6-3.8,3.7-3.8s3.5,1.6,3.5,3.5
		c0,0.3,0,0.5,0,0.7h-5.9c0.2,1.6,1.2,2.3,2.4,2.3c1,0,1.7-0.5,2.1-1.4h1.4C49.8,9.2,48.8,10.3,46.9,10.3z M44.4,5.9h4.7
		c0-1.4-1-2.3-2.3-2.3C45.6,3.7,44.6,4.5,44.4,5.9z M55,2.6c1.2,0,2.3,0.5,2.8,1.4V0H59v10.1h-1.2V8.7c-0.5,0.9-1.4,1.6-2.8,1.6
		c-1.9,0-3.5-1.6-3.5-3.8S53.1,2.6,55,2.6z M55.4,3.7c-1.4,0-2.4,1-2.4,2.8s1.2,2.8,2.4,2.8s2.4-1,2.4-2.8S56.6,3.7,55.4,3.7z
		 M68.3,10.1h-3.5V0.7h3.3c1.9,0,3,1,3,2.4c0,1.2-0.7,1.9-1.6,2.3c1,0.2,1.9,1.2,1.9,2.3C71.4,9.2,70.2,10.1,68.3,10.1z M68.1,1.7
		H66v3.1h2.1c1.2,0,1.7-0.5,1.7-1.6C69.8,2.3,69.3,1.7,68.1,1.7z M68.1,5.7H66v3.5h2.3c1.2,0,1.9-0.7,1.9-1.6S69.3,5.7,68.1,5.7z
		 M78.2,2.8h1.2l-4.5,11h-1.2l1.4-3.5l-3-7.3h1.4l2.3,6.1L78.2,2.8z"/>
</g>
</svg>
