<svg id="Layer_1" data-name="Layer 1" xmlns="http://www.w3.org/2000/svg" viewBox="0 0 116.14 34.81"><defs><style>.cls-1{fill:#00aeef;}.cls-2{fill:#b2b2b2;}</style></defs><polygon class="cls-1" points="110.33 23.2 102.2 23.2 104.53 27.85 107.46 27.85 108.63 30.17 99.88 30.17 99.88 16.24 101.66 16.24 102.82 18.56 108.01 18.56 104.53 11.59 95.24 11.59 95.24 34.81 116.14 34.81 110.33 23.2"/><polygon class="cls-1" points="92.91 11.59 88.27 11.59 88.27 23.2 83.62 11.59 78.98 11.59 78.98 34.81 83.62 34.81 83.62 23.2 88.27 34.81 92.91 34.81 92.91 11.59"/><polygon class="cls-1" points="76.65 20.88 69.69 11.59 62.72 20.88 62.72 34.81 67.36 34.81 67.36 22.43 69.69 19.33 72.01 22.43 72.01 34.81 76.65 34.81 76.65 20.88"/><path class="cls-1" d="M103.53,65.4H89.6V42.19h13.94v9.29l-2.32,2.32,2.32,2.32V65.4Zm-4.64-7.35-4.25-4.24,4.25-4.25V46.84H94.24V60.77h4.65Z" transform="translate(-43.14 -30.6)"/><polygon class="cls-1" points="44.13 23.2 39.49 23.2 37.17 23.2 37.17 27.85 39.49 27.85 39.49 30.17 34.84 30.17 34.84 16.24 39.49 16.24 39.49 18.56 44.13 18.56 44.13 11.59 30.2 11.59 30.2 34.81 44.13 34.81 44.13 23.2"/><rect class="cls-1" x="23.23" y="11.59" width="4.65" height="23.22"/><path class="cls-1" d="M64.05,65.4H43.14L54.75,42.18H64v9.29l-2.32,2.32L64,56.11V65.4Zm-8.9-11.6,4.25-4.25V46.83H57.63l-7,13.93H59.4V58Z" transform="translate(-43.14 -30.6)"/><path class="cls-1" d="M149.69,40.72V38.29h1.05a1.22,1.22,0,0,1,.48.07.45.45,0,0,1,.26.23.69.69,0,0,1-.06.8.87.87,0,0,1-.51.23.78.78,0,0,1,.19.12,1.72,1.72,0,0,1,.26.32l.41.66h-.4l-.31-.51a3.84,3.84,0,0,0-.23-.34.6.6,0,0,0-.16-.16l-.14-.07H150v1.09Zm.32-1.36h.68a1,1,0,0,0,.34,0,.35.35,0,0,0,.18-.16.38.38,0,0,0,.06-.22.36.36,0,0,0-.12-.28.65.65,0,0,0-.39-.11H150v.82Z" transform="translate(-43.14 -30.6)"/><path class="cls-1" d="M150.59,41.81a2.21,2.21,0,1,1,2.2-2.2,2.21,2.21,0,0,1-2.2,2.2m0-4.07a1.86,1.86,0,1,0,1.86,1.86,1.86,1.86,0,0,0-1.86-1.86" transform="translate(-43.14 -30.6)"/><path class="cls-2" d="M46.39,34.09h-1v2.26h-.71V30.94h1.75c1.27,0,1.87.7,1.87,1.58S47.73,34.09,46.39,34.09Zm0-.59c.81,0,1.15-.38,1.15-1s-.34-1-1.15-1h-1v2Z" transform="translate(-43.14 -30.6)"/><path class="cls-2" d="M51,36.42a2.2,2.2,0,1,1,2.18-2.21A2.11,2.11,0,0,1,51,36.42Zm0-.62a1.59,1.59,0,0,0,0-3.16,1.41,1.41,0,0,0-1.42,1.58A1.4,1.4,0,0,0,51,35.8Z" transform="translate(-43.14 -30.6)"/><path class="cls-2" d="M53.6,32.09h.72l1,3.57,1.06-3.57h.72l1,3.58,1-3.58h.7l-1.33,4.26h-.73l-1-3.38-1,3.38h-.73Z" transform="translate(-43.14 -30.6)"/><path class="cls-2" d="M62.31,36.42a2,2,0,0,1-2.1-2.21A2,2,0,0,1,62.31,32a2,2,0,0,1,2,2c0,.16,0,.28,0,.43h-3.4a1.34,1.34,0,0,0,1.38,1.34,1.18,1.18,0,0,0,1.2-.78h.76A1.93,1.93,0,0,1,62.31,36.42Zm-1.38-2.51h2.69a1.25,1.25,0,0,0-1.34-1.29A1.33,1.33,0,0,0,60.93,33.91Z" transform="translate(-43.14 -30.6)"/><path class="cls-2" d="M66,36.35h-.71V32.09H66v.69A1.44,1.44,0,0,1,67.37,32v.73h-.19C66.5,32.74,66,33,66,34Z" transform="translate(-43.14 -30.6)"/><path class="cls-2" d="M70,36.42a2,2,0,0,1-2.1-2.21A2,2,0,0,1,70,32a2,2,0,0,1,2,2c0,.16,0,.28,0,.43h-3.4A1.34,1.34,0,0,0,70,35.83a1.18,1.18,0,0,0,1.2-.78H72A1.93,1.93,0,0,1,70,36.42Zm-1.38-2.51h2.69A1.25,1.25,0,0,0,70,32.62,1.32,1.32,0,0,0,68.64,33.91Z" transform="translate(-43.14 -30.6)"/><path class="cls-2" d="M74.75,32a1.86,1.86,0,0,1,1.58.83V30.6H77v5.75h-.71v-.8a1.76,1.76,0,0,1-1.58.87,2,2,0,0,1-2-2.21A2,2,0,0,1,74.75,32Zm.13.61a1.44,1.44,0,0,0-1.44,1.57,1.45,1.45,0,1,0,1.44-1.57Z" transform="translate(-43.14 -30.6)"/><path class="cls-2" d="M82.33,36.35h-2V30.94h1.94c1.14,0,1.72.62,1.72,1.37a1.27,1.27,0,0,1-1,1.25,1.35,1.35,0,0,1,1.07,1.34C84.09,35.71,83.45,36.35,82.33,36.35Zm-.14-4.83H81v1.76H82.2c.66,0,1-.33,1-.88S82.88,31.52,82.19,31.52Zm0,2.33H81v1.91h1.25c.7,0,1.12-.35,1.12-.94S82.93,33.85,82.24,33.85Z" transform="translate(-43.14 -30.6)"/><path class="cls-2" d="M88,32.09h.73l-2.56,6.26h-.73l.84-2.05-1.72-4.21h.78l1.34,3.45Z" transform="translate(-43.14 -30.6)"/></svg>